<svg width="32" height="45" viewBox="0 0 684 1016" fill="none" xmlns="http://www.w3.org/2000/svg">
<path d="M629.132 337.328C629.132 375.127 617.964 422.516 596.783 477.591C575.81 532.122 546.222 591.156 512.159 651.406C458.124 746.981 394.689 842.469 339.547 925.193C290.285 851.298 228.86 758.356 174.697 663.058C139.292 600.763 107.707 538.674 85.0882 481.54C62.1571 423.619 50 374.597 50 337.328C50 178.952 179.331 50 339.566 50C499.801 50 629.132 178.952 629.132 337.328Z" fill="#22B573" stroke="white" stroke-width="100"/>
<path d="M633.132 337.328C633.132 375.127 621.964 422.516 600.783 477.591C579.81 532.122 550.222 591.156 516.159 651.406C462.124 746.981 398.689 842.469 343.547 925.193C294.285 851.298 232.86 758.356 178.697 663.058C143.292 600.763 111.707 538.674 89.0882 481.54C66.1571 423.619 54 374.597 54 337.328C54 178.952 183.331 50 343.566 50C503.801 50 633.132 178.952 633.132 337.328Z" stroke="#22B573" stroke-width="50"/>
<circle cx="343.389" cy="287.448" r="90.1071" fill="white" stroke="white" stroke-width="50"/>
</svg>
