<svg width="31" height="46" viewBox="0 0 31 46" fill="none" xmlns="http://www.w3.org/2000/svg">
<path d="M28.6505 15.7261C28.6505 17.4003 28.1559 19.4992 27.2178 21.9386C26.2888 24.3538 24.9783 26.9685 23.4696 29.6371C21.0764 33.8702 18.2667 38.0995 15.8244 41.7635C13.6425 38.4906 10.9219 34.374 8.523 30.1532C6.95486 27.394 5.55592 24.644 4.5541 22.1135C3.53845 19.5481 3 17.3768 3 15.7261C3 8.71146 8.72824 3 15.8253 3C22.9223 3 28.6505 8.71146 28.6505 15.7261Z" fill="#7322B5" stroke="white" stroke-width="4.42913"/>
<path d="M28.8278 15.7261C28.8278 17.4003 28.3331 19.4992 27.395 21.9386C26.4661 24.3538 25.1556 26.9685 23.6469 29.6371C21.2536 33.8702 18.444 38.0995 16.0017 41.7635C13.8198 38.4906 11.0992 34.374 8.70024 30.1532C7.13211 27.394 5.73317 24.644 4.73135 22.1135C3.7157 19.5481 3.17725 17.3768 3.17725 15.7261C3.17725 8.71146 8.90549 3 16.0025 3C23.0995 3 28.8278 8.71146 28.8278 15.7261Z" stroke="#7322B5" stroke-width="2.21457"/>
<path d="M15.9946 16.9819C18.1988 16.9819 19.9856 15.1951 19.9856 12.991C19.9856 10.7868 18.1988 9 15.9946 9C13.7905 9 12.0037 10.7868 12.0037 12.991C12.0037 15.1951 13.7905 16.9819 15.9946 16.9819Z" fill="white" stroke="white" stroke-width="2.21457"/>
<line x1="16" y1="17.4741" x2="16" y2="25.4741" stroke="white" stroke-width="2"/>
<line x1="14" y1="24.4741" x2="14" y2="31.4741" stroke="white" stroke-width="2"/>
<line x1="20.0104" y1="20.474" x2="12.0109" y2="20.5614" stroke="white" stroke-width="2"/>
<line x1="18" y1="24.4741" x2="18" y2="31.4741" stroke="white" stroke-width="2"/>
</svg>
